<?xml version="1.0" standalone="no"?>
<!DOCTYPE svg PUBLIC "-//W3C//DTD SVG 20010904//EN"
 "http://www.w3.org/TR/2001/REC-SVG-20010904/DTD/svg10.dtd">
<svg version="1.0" xmlns="http://www.w3.org/2000/svg"
 width="576.000000pt" height="705.000000pt" viewBox="0 0 576.000000 705.000000"
 preserveAspectRatio="xMidYMid meet">

<g transform="translate(0.000000,705.000000) scale(0.100000,-0.100000)"
fill="#FFFF00" stroke="none">
<path d="M4674 6999 c-81 -23 -298 -204 -527 -439 -386 -396 -669 -794 -774
-1090 l-28 -79 -51 29 c-74 43 -221 97 -337 125 -318 76 -637 44 -930 -93 -93
-43 -100 -45 -109 -28 -79 141 -294 412 -463 582 -402 406 -1132 884 -1260
826 -13 -6 -27 -23 -31 -36 -10 -41 32 -159 115 -320 271 -531 726 -1069 1151
-1361 47 -32 86 -59 88 -60 1 -1 -13 -35 -32 -76 -36 -77 -73 -205 -102 -349
-13 -64 -18 -146 -20 -335 -2 -245 -3 -252 -32 -355 -66 -229 -77 -384 -36
-520 15 -50 71 -167 111 -230 15 -25 14 -28 -24 -79 -89 -118 -173 -292 -214
-448 -29 -109 -37 -323 -15 -416 22 -95 59 -168 117 -231 46 -50 49 -57 49
-106 0 -76 -35 -237 -86 -389 -56 -172 -74 -267 -74 -401 0 -153 39 -288 111
-392 l19 -26 -60 -109 c-165 -297 -197 -534 -77 -577 71 -25 168 54 377 307
l105 128 45 -8 c25 -5 90 -8 145 -7 83 1 128 8 260 42 264 67 322 76 505 76
189 0 269 -13 473 -76 117 -36 146 -41 257 -45 87 -3 140 0 176 9 l51 14 107
-132 c241 -296 312 -354 387 -314 98 53 50 286 -114 559 -31 52 -57 98 -57
103 0 5 11 24 24 41 79 105 116 239 116 416 0 201 -40 409 -130 678 l-41 123
55 65 c61 71 107 155 141 254 l22 63 224 123 c123 68 223 127 222 132 -1 5
-81 143 -177 307 -97 163 -176 300 -176 304 0 4 135 47 300 97 174 52 300 95
300 102 0 6 -101 180 -225 386 -124 206 -225 379 -225 384 0 4 230 116 511
248 281 132 513 244 516 249 4 6 17 287 29 625 12 339 24 667 27 729 5 104 4
114 -12 109 -13 -3 -1093 -617 -1231 -700 -39 -23 -40 -25 42 78 119 150 270
404 352 591 62 140 109 279 161 469 83 306 94 397 50 440 -26 27 -26 27 -71
14z m-489 -591 c66 -207 52 -521 -36 -873 -17 -65 -29 -90 -65 -132 -71 -83
-291 -309 -345 -354 l-50 -41 -55 58 -55 59 72 -110 c82 -124 131 -225 149
-305 7 -31 16 -183 20 -350 7 -274 10 -306 39 -445 40 -198 41 -189 -11 -165
-24 11 -56 20 -73 20 -115 0 -261 -180 -301 -371 -28 -134 2 -236 95 -321 l56
-51 -90 -84 c-56 -52 -96 -82 -105 -79 -215 73 -360 86 -360 32 0 -9 -12 -13
-37 -12 -34 1 -38 -3 -60 -45 -14 -26 -29 -78 -35 -117 l-11 -71 -71 -13
c-104 -19 -378 -14 -491 9 l-90 18 -6 75 c-6 90 -29 140 -64 140 -15 0 -31 11
-45 30 -23 33 -45 37 -75 16 -11 -7 -56 -17 -100 -20 -44 -4 -109 -14 -143
-22 -35 -8 -69 -11 -75 -7 -24 13 -153 121 -176 147 -14 14 -19 26 -13 26 7 0
32 18 55 40 130 119 154 356 56 541 -82 154 -194 215 -321 176 l-48 -15 7 26
c3 15 17 63 31 107 25 76 26 94 28 330 3 280 20 410 75 590 33 106 99 242 150
306 17 21 26 39 20 39 -6 0 -29 -25 -52 -55 -23 -30 -45 -55 -48 -55 -11 0
-151 98 -242 170 -46 36 -134 115 -196 175 l-114 110 -45 134 c-55 166 -99
328 -119 445 -25 145 -18 332 14 368 7 8 273 -191 416 -311 164 -137 343 -328
491 -526 74 -98 179 -254 173 -258 -2 -2 -19 -14 -37 -26 -57 -40 -28 -33 49
10 155 88 289 136 456 164 143 24 429 17 558 -13 166 -39 303 -94 429 -171 77
-48 96 -49 39 -2 l-38 31 24 68 c92 259 326 608 645 959 116 128 111 128 151
1z m1098 -525 c-30 -389 -46 -707 -47 -938 -1 -225 1 -254 17 -278 l17 -27
-62 -29 c-218 -100 -933 -442 -939 -448 -4 -5 96 -180 223 -391 126 -211 228
-385 226 -387 -1 -2 -137 -44 -302 -93 -164 -50 -300 -93 -302 -95 -3 -2 22
-49 55 -105 43 -74 61 -114 66 -153 l7 -54 -59 56 c-99 96 -117 111 -121 99
-4 -12 14 -116 25 -149 3 -9 -12 1 -34 22 -23 22 -43 34 -47 29 -3 -5 -2 -32
3 -58 5 -27 8 -50 7 -51 -9 -10 -53 41 -95 110 -27 45 -72 110 -100 145 l-51
62 46 63 c57 76 89 145 103 222 6 32 12 59 13 60 2 0 48 18 103 39 55 22 104
42 108 46 4 4 -3 20 -16 36 -13 16 -73 92 -134 170 l-110 141 -16 109 c-10 66
-18 206 -21 354 -7 311 -22 386 -111 538 l-31 53 181 178 180 178 370 211
c204 116 478 274 610 350 132 77 242 140 245 141 3 1 0 -70 -7 -156z m-1268
-2163 l98 -125 -39 -17 c-22 -9 -63 -26 -91 -37 l-53 -21 0 83 c0 74 -10 169
-26 237 -7 31 -8 33 111 -120z m-2477 -677 c54 -54 121 -116 150 -138 28 -21
52 -42 52 -45 0 -3 -20 -13 -45 -23 -45 -19 -161 -89 -180 -110 -5 -5 16 4 47
21 145 80 319 132 442 132 28 0 64 7 80 15 39 20 44 19 73 -15 13 -16 34 -30
44 -30 56 0 64 -176 15 -342 -46 -157 -142 -338 -233 -439 -86 -96 -227 -159
-354 -159 -138 0 -250 40 -328 118 -93 93 -134 211 -134 387 -1 219 67 427
210 643 30 45 56 82 59 82 2 0 48 -44 102 -97z m2329 -56 c68 -102 150 -265
168 -332 22 -85 20 -243 -5 -341 -48 -190 -158 -342 -298 -412 -71 -35 -82
-37 -167 -37 -86 0 -96 2 -169 39 -164 81 -314 279 -400 527 -54 159 -56 291
-5 396 22 45 26 47 71 28 13 -5 20 0 28 19 9 24 14 26 66 26 85 0 319 -66 427
-122 22 -11 41 -17 44 -14 4 4 -63 39 -155 82 -2 1 25 28 60 60 34 33 99 97
143 143 l80 83 33 -38 c19 -22 54 -70 79 -107z m-1517 -363 c130 -30 484 -29
565 3 10 3 16 -7 20 -34 32 -202 141 -431 273 -573 113 -123 226 -180 357
-180 77 0 165 24 214 60 16 11 32 20 34 20 9 0 96 -273 122 -383 64 -272 71
-487 21 -644 -65 -202 -236 -364 -441 -418 -147 -38 -246 -31 -462 34 -188 57
-293 74 -458 74 -161 0 -255 -14 -495 -76 -154 -39 -174 -42 -295 -42 -111 1
-138 4 -186 23 -146 58 -309 204 -373 333 -92 188 -88 403 14 704 37 109 71
258 85 376 l6 47 39 -19 c59 -28 156 -49 235 -49 231 0 400 133 540 426 42 88
87 221 100 297 3 20 9 37 13 37 4 -1 36 -7 72 -16z m-995 -1985 c49 -51 144
-119 208 -150 26 -13 47 -25 47 -28 -1 -11 -202 -247 -268 -315 -57 -58 -124
-106 -147 -106 -7 0 93 192 123 238 8 12 11 22 8 22 -12 0 -116 -168 -133
-214 -18 -48 -28 -54 -57 -33 -16 12 -14 21 33 130 28 65 62 139 77 165 20 37
22 42 5 22 -30 -36 -117 -209 -126 -249 -5 -24 -10 -30 -16 -20 -23 36 -1 162
51 295 31 79 140 284 150 284 3 0 24 -18 45 -41z m2534 -53 c101 -160 168
-323 176 -429 l5 -62 -19 51 c-18 49 -108 214 -117 214 -2 0 9 -26 25 -58 16
-32 45 -98 65 -147 35 -88 36 -90 17 -108 -18 -19 -19 -18 -35 30 -18 53 -84
156 -140 218 -30 33 -26 25 19 -43 59 -88 129 -221 122 -229 -3 -2 -20 2 -38
10 -51 21 -191 172 -365 392 l-31 39 76 38 c42 21 103 62 136 92 33 31 61 55
62 56 0 0 19 -29 42 -64z"/>
<path d="M1785 4314 c-103 -36 -165 -131 -165 -249 0 -178 93 -301 225 -299
93 1 172 63 224 174 21 44 25 70 26 136 l0 80 -79 87 -79 87 -56 -1 c-31 0
-74 -7 -96 -15z m230 -129 c30 -40 28 -75 -6 -120 -27 -34 -82 -35 -104 -2
-36 55 -24 119 25 144 39 20 56 16 85 -22z"/>
<path d="M3242 4231 c-88 -82 -101 -107 -102 -197 -1 -136 105 -280 220 -299
126 -21 246 102 258 267 2 36 2 82 -2 101 -9 48 -62 124 -106 153 -38 25 -127
54 -165 53 -11 0 -57 -35 -103 -78z m97 -68 c19 -21 22 -34 18 -66 -7 -51 -32
-77 -73 -77 -70 0 -100 97 -47 152 33 35 65 31 102 -9z"/>
<path d="M2593 3729 c-11 -4 -24 -12 -27 -17 -7 -11 31 -62 45 -62 13 0 59 46
59 59 0 15 -53 29 -77 20z"/>
<path d="M2535 3404 c-68 -52 -115 -74 -163 -74 -36 0 -96 36 -130 77 -17 21
-31 33 -32 27 0 -24 82 -103 124 -119 41 -16 48 -16 98 -1 30 9 81 37 117 64
l65 49 53 -43 c123 -100 217 -99 318 5 50 52 37 53 -21 2 -54 -47 -114 -65
-170 -50 -43 12 -106 53 -143 93 -14 14 -29 26 -35 25 -6 0 -42 -25 -81 -55z"/>
</g>
</svg>
